<svg id="Layer_1" data-name="Layer 1" xmlns="http://www.w3.org/2000/svg" xmlns:xlink="http://www.w3.org/1999/xlink" viewBox="0 0 100 100"><defs><style>.cls-1{fill:url(#linear-gradient);}.cls-2{fill:url(#linear-gradient-2);}.cls-3{fill:#231f20;}</style><linearGradient id="linear-gradient" y1="50" x2="31.25" y2="50" gradientUnits="userSpaceOnUse"><stop offset="0.14" stop-color="#414042"/><stop offset="0.5" stop-color="#29282a"/><stop offset="1"/></linearGradient><linearGradient id="linear-gradient-2" x1="41.62" y1="59.18" x2="87.45" y2="27.6" xlink:href="#linear-gradient"/></defs><path class="cls-1" d="M13.08,43.46A37.17,37.17,0,0,0,12.5,50,36.68,36.68,0,0,0,13,56a37.45,37.45,0,0,0,18.27,26.5V96.35A50,50,0,0,1,.36,56a49.15,49.15,0,0,1,.08-12.5A50,50,0,0,1,31.25,3.65V17.54A37.41,37.41,0,0,0,13.08,43.46Z"/><path class="cls-2" d="M100,48.22c0-.37,0-.73,0-1.09s0-.48-.05-.7c-.08-1.07-.19-2.12-.33-3.16-.06-.51-.15-1-.22-1.51a1.55,1.55,0,0,1,0-.21c-.21-1.26-.48-2.51-.79-3.74s-.66-2.45-1.06-3.64c-.2-.6-.4-1.18-.63-1.77-.15-.41-.31-.81-.47-1.21s-.28-.68-.43-1-.26-.6-.4-.89A12.11,12.11,0,0,0,95,28.2c-.1-.22-.21-.45-.33-.66a7.54,7.54,0,0,0-.46-.89c-.35-.69-.72-1.36-1.13-2s-.87-1.44-1.34-2.14c-.34-.52-.69-1-1-1.52s-.65-.9-1-1.34c-.79-1-1.61-2-2.47-3A49.82,49.82,0,0,0,56.25.39a50.28,50.28,0,0,0-12.5,0V99.61a50.28,50.28,0,0,0,12.5,0A49.94,49.94,0,0,0,89.41,80.77c.37-.46.71-.92,1-1.39s.5-.7.74-1.06a4.15,4.15,0,0,0,.24-.34c.27-.39.54-.79.79-1.21s.52-.82.76-1.25.52-.87.76-1.32c.64-1.14,1.22-2.3,1.77-3.5.22-.49.43-1,.64-1.46h0c.2-.49.4-1,.59-1.48,0-.11.09-.23.13-.34.14-.39.28-.77.42-1.17a3.56,3.56,0,0,0,.16-.53c.33-1,.63-1.95.89-2.94.14-.55.28-1.11.4-1.67.09-.36.16-.74.24-1.11a9.53,9.53,0,0,0,.2-1c.06-.35.12-.71.19-1.06l.06-.45c.07-.48.13-1,.2-1.44a0,0,0,0,0,0,0c.07-.55.14-1.1.17-1.66s.12-1.35.13-2a1.62,1.62,0,0,0,0-.22c0-.68,0-1.35,0-2S100,48.81,100,48.22ZM56.25,87V13A37.3,37.3,0,0,1,78.36,25.49L56.25,47.6,80.48,71.84A37.46,37.46,0,0,1,56.25,87Z"/><path class="cls-3" d="M97.46,65.71c.33-1,.63-1.95.89-2.94C98.09,63.77,97.8,64.75,97.46,65.71Z"/><path class="cls-3" d="M98.5,37.81c-.31-1.23-.66-2.45-1.06-3.64C97.85,35.36,98.2,36.58,98.5,37.81Z"/></svg>